<svg xmlns="http://www.w3.org/2000/svg" width="1400" height="800" viewBox="0 0 1400 800">
  <defs>
    <linearGradient id="bg" x1="0" y1="0" x2="1" y2="1">
      <stop offset="0" stop-color="#11100f"/>
      <stop offset="0.58" stop-color="#1b1814"/>
      <stop offset="1" stop-color="#2a2118"/>
    </linearGradient>
    <linearGradient id="gold" x1="0" y1="0" x2="1" y2="1">
      <stop offset="0" stop-color="#f4d47b"/>
      <stop offset="0.48" stop-color="#b88735"/>
      <stop offset="1" stop-color="#fff1a8"/>
    </linearGradient>
    <clipPath id="portraitClip">
      <rect x="72" y="80" width="520" height="640" rx="34" ry="34"/>
    </clipPath>
    <pattern id="grid" width="44" height="44" patternUnits="userSpaceOnUse">
      <path d="M44 0H0V44" fill="none" stroke="#d7b25c" stroke-width="1" opacity="0.08"/>
    </pattern>
    <filter id="shadow" x="-15%" y="-15%" width="130%" height="130%">
      <feDropShadow dx="0" dy="22" stdDeviation="28" flood-color="#000000" flood-opacity="0.45"/>
    </filter>
  </defs>

  <rect width="1400" height="800" fill="url(#bg)"/>
  <rect width="1400" height="800" fill="url(#grid)"/>
  <circle cx="1228" cy="154" r="180" fill="#d7b25c" opacity="0.08"/>
  <circle cx="1244" cy="612" r="260" fill="#6f4c2c" opacity="0.14"/>

  <rect x="58" y="66" width="548" height="668" rx="46" fill="#090909" opacity="0.48" filter="url(#shadow)"/>
  <image href="business-card/assets/portrait-award.jpg" x="72" y="80" width="520" height="640" preserveAspectRatio="xMidYMid slice" clip-path="url(#portraitClip)"/>
  <rect x="72" y="80" width="520" height="640" rx="34" fill="none" stroke="url(#gold)" stroke-width="5"/>
  <rect x="72" y="80" width="520" height="640" rx="34" fill="#000000" opacity="0.08"/>

  <g transform="translate(674 104)">
    <rect x="0" y="0" width="236" height="42" rx="21" fill="#d7b25c" opacity="0.16"/>
    <text x="22" y="28" fill="#f4d47b" font-family="Avenir Next, Inter, Arial, sans-serif" font-size="17" font-weight="700" letter-spacing="2">ÖDÜLLÜ PROFİL</text>

    <text x="0" y="146" fill="#f8f1df" font-family="Avenir Next, Inter, Arial, sans-serif" font-size="86" font-weight="800" letter-spacing="0">AD SOYAD</text>
    <rect x="2" y="178" width="168" height="6" rx="3" fill="url(#gold)"/>
    <text x="0" y="244" fill="#d9b45e" font-family="Avenir Next, Inter, Arial, sans-serif" font-size="34" font-weight="700" letter-spacing="0">Pazarlama İletişimi</text>
    <text x="0" y="288" fill="#c8bda8" font-family="Avenir Next, Inter, Arial, sans-serif" font-size="28" font-weight="500" letter-spacing="0">Marka Stratejisi / Yaratıcı İşler</text>

    <text x="0" y="374" fill="#f8f1df" font-family="Avenir Next, Inter, Arial, sans-serif" font-size="31" font-weight="650" letter-spacing="0">Net fikir. Güçlü entegrasyon.</text>
    <text x="0" y="418" fill="#b8ad9b" font-family="Avenir Next, Inter, Arial, sans-serif" font-size="23" font-weight="450" letter-spacing="0">Ödül alan işleri görünür sonuçlara çeviren</text>
    <text x="0" y="452" fill="#b8ad9b" font-family="Avenir Next, Inter, Arial, sans-serif" font-size="23" font-weight="450" letter-spacing="0">iletişim ve büyüme danışmanlığı.</text>

    <g transform="translate(0 522)" fill="none" stroke="#d9b45e" stroke-width="2.8" stroke-linecap="round" stroke-linejoin="round">
      <rect x="0" y="-18" width="34" height="26" rx="4"/>
      <path d="M4 -14l13 11 13 -11"/>
      <path d="M0 52c0-13 8-21 18-21s18 8 18 21"/>
      <path d="M11 20c0 5 3 9 7 9s7-4 7-9-3-9-7-9-7 4-7 9z"/>
      <circle cx="18" cy="104" r="16"/>
      <path d="M7 104h22M18 88c6 8 6 24 0 32M18 88c-6 8-6 24 0 32"/>
    </g>
    <g transform="translate(56 510)" fill="#f2ead8" font-family="Avenir Next, Inter, Arial, sans-serif" font-size="23" font-weight="500" letter-spacing="0">
      <text x="0" y="0">merhaba@ornek.com</text>
      <text x="0" y="72">+90 555 000 00 00</text>
      <text x="0" y="124">ornek-site.com</text>
    </g>
  </g>
</svg>
